<?xml version="1.0" encoding="UTF-8"?>
<svg version="1.1" xmlns="http://www.w3.org/2000/svg" width="849" height="338">
<path d="M0 0 C280.17 0 560.34 0 849 0 C849 111.54 849 223.08 849 338 C568.83 338 288.66 338 0 338 C0 226.46 0 114.92 0 0 Z " fill="#FEFEFE" transform="translate(0,0)"/>
<path d="M0 0 C10.08520958 -0.09352492 20.17031257 -0.16417678 30.25587082 -0.20724869 C34.94124645 -0.2279424 39.62632101 -0.25591758 44.31152344 -0.30175781 C48.85034299 -0.3458775 53.38887681 -0.36927316 57.92789459 -0.37950897 C59.64188372 -0.38678385 61.35586089 -0.4009809 63.06972504 -0.42292023 C99.69140737 -0.87219029 134.54800015 12.65906961 161 38 C161.87011719 38.79535156 162.74023438 39.59070313 163.63671875 40.41015625 C182.28354673 58.04617187 194.73751587 81.97145619 200 107 C200.18183838 107.80099121 200.36367676 108.60198242 200.55102539 109.42724609 C202.19626471 117.32585401 202.34495216 125.07637171 202.3125 133.125 C202.31167419 133.806763 202.31084839 134.488526 202.30999756 135.19094849 C202.28056201 145.75412661 201.56415897 155.73160193 199 166 C198.84821289 166.64493408 198.69642578 167.28986816 198.54003906 167.9543457 C193.80161964 187.77323779 184.24108777 206.55206427 171 222 C170.57106445 222.5057959 170.14212891 223.0115918 169.70019531 223.53271484 C158.84626272 236.23318378 146.6365822 245.98509737 132 254 C130.86820313 254.62777344 129.73640625 255.25554687 128.5703125 255.90234375 C119.39996822 260.74165938 109.95171192 264.14957754 100 267 C98.22882813 267.51433594 98.22882813 267.51433594 96.421875 268.0390625 C77.54159713 272.48881962 53.74089703 271.96553682 35 267 C34.35289062 266.83371094 33.70578125 266.66742188 33.0390625 266.49609375 C-2.46619428 257.17078312 -31.96340748 233.18798915 -50.5078125 201.8359375 C-54.68167102 194.4807156 -58.01261494 186.89129595 -60.875 178.9375 C-61.14932861 178.18364014 -61.42365723 177.42978027 -61.70629883 176.65307617 C-66.63543745 162.14435034 -67.4277999 148.00115377 -67.29296875 132.84375 C-67.28735705 130.96090029 -67.28309442 129.07804613 -67.28010559 127.19519043 C-67.2687805 122.29619749 -67.23942321 117.39748149 -67.20599365 112.49859619 C-67.17502307 107.47696679 -67.16154323 102.45529161 -67.14648438 97.43359375 C-67.11453868 87.62227573 -67.06349629 77.8111611 -67 68 C-66.42883453 67.89093826 -65.85766907 67.78187653 -65.26919556 67.66950989 C-62.6498012 67.16632083 -60.03195252 66.65548659 -57.4140625 66.14453125 C-56.5156665 65.97312622 -55.61727051 65.80172119 -54.69165039 65.62512207 C-43.24226978 63.37660402 -34.22288344 59.14493743 -25 52 C-24.17371094 51.38511719 -23.34742188 50.77023438 -22.49609375 50.13671875 C-10.00695282 39.4457014 -3.0278942 22.56914971 -0.88671875 6.609375 C-0.71744873 5.36639648 -0.54817871 4.12341797 -0.3737793 2.84277344 C-0.25043213 1.9046582 -0.12708496 0.96654297 0 0 Z " fill="#017DFC" transform="translate(94,40)"/>
<path d="M0 0 C0.33 0 0.66 0 1 0 C1 16.83 1 33.66 1 51 C4.63 51 8.26 51 12 51 C29.3527588 54.10196529 45.64248903 63.59059238 56 78 C66.42989273 94.13867872 71.96572652 111.71236811 68.3515625 131.0234375 C63.72064042 149.90335059 53.69219303 165.73142332 37 176 C21.08366669 185.54536028 3.05800755 188.72041694 -15.0625 184.5 C-32.91460552 179.78978558 -47.35293993 168.78225178 -57 153 C-63.34230031 141.3244017 -66 131.30057734 -66 118 C-83.49 118 -100.98 118 -119 118 C-119 117.67 -119 117.34 -119 117 C-117.93265625 116.86464844 -116.8653125 116.72929687 -115.765625 116.58984375 C-91.1521179 113.16516117 -67.03808256 103.16057085 -48 87 C-46.71802734 85.92492187 -46.71802734 85.92492187 -45.41015625 84.828125 C-20.27014866 62.98072241 -4.81442013 32.82976013 0 0 Z " fill="#FDFEFE" transform="translate(160,57)"/>
<path d="M0 0 C6.27 0 12.54 0 19 0 C21.66923657 6.56022961 24.16336104 13.13862237 26.453125 19.83984375 C26.75820984 20.7286171 27.06329468 21.61739044 27.37762451 22.53309631 C28.01416155 24.39050059 28.64934268 26.24837006 29.28320312 28.10668945 C30.25646212 30.9564213 31.23742613 33.80342737 32.21875 36.65039062 C32.8390098 38.46338158 33.45881798 40.27652711 34.078125 42.08984375 C34.51865204 43.36479958 34.51865204 43.36479958 34.96807861 44.66551208 C35.23545837 45.45385941 35.50283813 46.24220673 35.77832031 47.05444336 C36.01496399 47.74598007 36.25160767 48.43751678 36.49542236 49.15000916 C37 51 37 51 37 54 C37.66 54 38.32 54 39 54 C39.13390137 53.45029541 39.26780273 52.90059082 39.40576172 52.33422852 C41.81679875 42.9794411 45.01146311 33.89109703 48.15283203 24.76293945 C49.13301507 21.91420559 50.10791576 19.06370432 51.08203125 16.21289062 C51.70282152 14.40093766 52.32390448 12.58908495 52.9453125 10.77734375 C53.23697296 9.92534897 53.52863342 9.07335419 53.82913208 8.19554138 C54.23492996 7.01774864 54.23492996 7.01774864 54.64892578 5.81616211 C54.88636505 5.12542099 55.12380432 4.43467987 55.36843872 3.7230072 C56 2 56 2 57 0 C63.27 0 69.54 0 76 0 C76 24.42 76 48.84 76 74 C71.38 74 66.76 74 62 74 C61.67 58.16 61.34 42.32 61 26 C56.15230443 39.92570906 56.15230443 39.92570906 51.30712891 53.85229492 C50.69703111 55.60338457 50.08684804 57.35444452 49.4765625 59.10546875 C49.16291748 60.00833618 48.84927246 60.91120361 48.52612305 61.84143066 C48.06967407 63.15005066 48.06967407 63.15005066 47.60400391 64.48510742 C47.21095566 65.61428841 47.21095566 65.61428841 46.80996704 66.76628113 C45.92816143 69.19811567 44.96070379 71.59824052 44 74 C39.71 74 35.42 74 31 74 C30.58637207 72.78417236 30.17274414 71.56834473 29.74658203 70.31567383 C28.20853313 65.79584865 26.66873697 61.27662035 25.12841797 56.75756836 C24.46257783 54.80330324 23.79720875 52.84887756 23.13232422 50.89428711 C22.17539919 48.08144246 21.21676988 45.26918358 20.2578125 42.45703125 C19.96190216 41.58601273 19.66599182 40.7149942 19.3611145 39.81758118 C18.24163543 36.53884805 17.12350776 33.2979468 15.79638672 30.09643555 C15 28 15 28 15 25 C14.34 25 13.68 25 13 25 C13 41.17 13 57.34 13 74 C8.71 74 4.42 74 0 74 C0 49.58 0 25.16 0 0 Z " fill="#5372FF" transform="translate(672,127)"/>
<path d="M0 0 C6.084375 -0.0825 12.16875 -0.165 18.4375 -0.25 C20.33943115 -0.28641602 22.2413623 -0.32283203 24.20092773 -0.36035156 C42.21870293 -0.56346531 42.21870293 -0.56346531 48.59155273 5.51904297 C52.57490514 10.06098995 53.17539266 12.87499909 53.25 18.8125 C53.27578125 20.03582031 53.3015625 21.25914062 53.328125 22.51953125 C52.91292113 26.92365801 51.543367 29.37020444 48.53515625 32.546875 C45.79041379 34.78926407 43.58339155 36.58653174 40 37 C40 37.66 40 38.32 40 39 C40.5775 39.226875 41.155 39.45375 41.75 39.6875 C46.61524697 42.52556073 48.6079356 46.93951502 50.359375 52.10546875 C50.94912109 53.82733398 50.94912109 53.82733398 51.55078125 55.58398438 C51.94652344 56.77314453 52.34226562 57.96230469 52.75 59.1875 C53.16121094 60.38826172 53.57242188 61.58902344 53.99609375 62.82617188 C57 71.68320442 57 71.68320442 57 74 C52.05 74 47.1 74 42 74 C41.40832031 72.25332031 40.81664062 70.50664062 40.20703125 68.70703125 C39.40961311 66.40859072 38.61139397 64.11042798 37.8125 61.8125 C37.42513672 60.66201172 37.03777344 59.51152344 36.63867188 58.32617188 C34.00221669 49.92326645 34.00221669 49.92326645 28 44 C23.71 43.67 19.42 43.34 15 43 C15 53.23 15 63.46 15 74 C10.05 74 5.1 74 0 74 C0 49.58 0 25.16 0 0 Z " fill="#5573FF" transform="translate(538,127)"/>
<path d="M0 0 C6.6 0 13.2 0 20 0 C22.43610465 7.16322045 24.8713651 14.3267272 27.3059082 21.49047852 C28.13088243 23.91763701 28.95607081 26.34472272 29.78149414 28.77172852 C34.90321154 43.83175712 39.99174308 58.90183326 45 74 C39.72 74 34.44 74 29 74 C28.175 71.56625 27.35 69.1325 26.5 66.625 C26.23896484 65.86010254 25.97792969 65.09520508 25.70898438 64.30712891 C24 59.22222222 24 59.22222222 24 57 C14.43 57 4.86 57 -5 57 C-5.99 60.63 -6.98 64.26 -8 68 C-8.66 69.98 -9.32 71.96 -10 74 C-14.95 74 -19.9 74 -25 74 C-23.45246348 66.0549432 -20.93338112 58.55364334 -18.28125 50.91796875 C-17.81772506 49.57289972 -17.35455589 48.22770805 -16.89172363 46.88240051 C-15.92648096 44.08011922 -14.95794694 41.27900593 -13.98681641 38.47875977 C-12.74415786 34.89514626 -11.508364 31.30921228 -10.27481842 27.72245312 C-9.32131983 24.95159293 -8.3649788 22.18172077 -7.40769958 19.41216469 C-6.9509042 18.08994965 -6.49481103 16.76749179 -6.03944397 15.44478416 C-5.40341895 13.59919402 -4.76332032 11.75500925 -4.12304688 9.91088867 C-3.76045776 8.86325851 -3.39786865 7.81562836 -3.02429199 6.73625183 C-2 4 -2 4 0 0 Z " fill="#5473FF" transform="translate(483,127)"/>
<path d="M0 0 C4.95 0 9.9 0 15 0 C15 9.24 15 18.48 15 28 C25.89 28 36.78 28 48 28 C48 18.76 48 9.52 48 0 C52.95 0 57.9 0 63 0 C63 24.42 63 48.84 63 74 C58.05 74 53.1 74 48 74 C48 62.78 48 51.56 48 40 C37.11 40 26.22 40 15 40 C15 51.22 15 62.44 15 74 C10.05 74 5.1 74 0 74 C0 49.58 0 25.16 0 0 Z " fill="#5473FF" transform="translate(384,127)"/>
<path d="M0 0 C16.5 0 33 0 50 0 C50 3.96 50 7.92 50 12 C38.45 12 26.9 12 15 12 C15 17.61 15 23.22 15 29 C25.23 29 35.46 29 46 29 C46 32.96 46 36.92 46 41 C35.77 41 25.54 41 15 41 C15 47.93 15 54.86 15 62 C26.55 62 38.1 62 50 62 C50 65.96 50 69.92 50 74 C33.5 74 17 74 0 74 C0 49.58 0 25.16 0 0 Z " fill="#5574FF" transform="translate(767,127)"/>
<path d="M0 0 C0.79245117 0.00942627 1.58490234 0.01885254 2.40136719 0.02856445 C11.59338412 0.26486067 18.4858554 1.84971447 25.1875 8.375 C24.58055845 11.52830554 23.5458335 13.56388867 21.625 16.125 C21.16996094 16.73859375 20.71492188 17.3521875 20.24609375 17.984375 C19.89675781 18.44328125 19.54742187 18.9021875 19.1875 19.375 C17.18026958 18.37812046 15.18489611 17.37358719 13.21484375 16.3046875 C6.23378143 12.78153455 -0.47815456 12.01520535 -8 14.375 C-10.42645122 17.05246341 -10.33452743 18.9211895 -10.28125 22.4375 C-9.66299295 24.99296247 -8.93979524 25.82582321 -6.8125 27.375 C-4.03655927 28.24937514 -4.03655927 28.24937514 -0.875 28.8125 C20.92173904 33.54564489 20.92173904 33.54564489 27.375 43.140625 C29.65141627 49.40076974 29.35505195 58.92619952 26.5625 65 C22.692706 71.23767494 17.13371217 74.42996895 10.1875 76.375 C7.21477001 76.78999364 4.31101724 76.85234314 1.3125 76.8125 C0.13059082 76.80331543 0.13059082 76.80331543 -1.07519531 76.79394531 C-11.16564208 76.52370261 -18.49609834 72.73717572 -26.25 66.375 C-27.8125 64.375 -27.8125 64.375 -27.6015625 62.484375 C-26.68483001 60.033704 -25.49994834 58.56111306 -23.75 56.625 C-22.92822266 55.70460938 -22.92822266 55.70460938 -22.08984375 54.765625 C-21.66832031 54.30671875 -21.24679687 53.8478125 -20.8125 53.375 C-16.51338972 54.19128676 -14.88895323 56.29854677 -11.8125 59.375 C-6.19451321 63.44804042 0.52040401 63.03826407 7.1875 62.375 C10.39367157 61.1636377 10.39367157 61.1636377 12.1875 58.375 C12.49842739 56.26881324 12.49842739 56.26881324 12.5625 53.9375 C12.61148438 53.15503906 12.66046875 52.37257812 12.7109375 51.56640625 C12.37740975 49.21992589 12.37740975 49.21992589 10.31640625 47.7734375 C5.05640219 45.42252433 -0.49708858 44.14626484 -6.06445312 42.71289062 C-13.72707483 40.6458916 -19.24914589 38.22003117 -23.8125 31.375 C-26.19673786 26.2488886 -26.65289382 20.93188976 -25.8125 15.375 C-22.8745581 8.28509063 -17.85978559 3.95240741 -10.828125 1.01000977 C-7.24744074 -0.11806191 -3.72554176 -0.06830423 0 0 Z " fill="#5573FF" transform="translate(341.8125,125.625)"/>
<path d="M0 0 C16.17 0 32.34 0 49 0 C49 3.96 49 7.92 49 12 C37.78 12 26.56 12 15 12 C15 17.61 15 23.22 15 29 C24.9 29 34.8 29 45 29 C45 32.96 45 36.92 45 41 C34.77 41 24.54 41 14 41 C14 47.93 14 54.86 14 62 C25.88 62 37.76 62 50 62 C50 65.96 50 69.92 50 74 C33.5 74 17 74 0 74 C0 49.58 0 25.16 0 0 Z " fill="#5372FF" transform="translate(608,127)"/>
<path d="M0 0 C2.51625 -0.061875 5.0325 -0.12375 7.625 -0.1875 C8.79603271 -0.22846802 8.79603271 -0.22846802 9.99072266 -0.27026367 C14.71841279 -0.32607418 17.91835974 0.37083533 22 3 C24.47631221 6.71446831 24.53805227 9.69558186 24 14 C22.71590748 17.10885557 21.87267227 18.53110147 18.90625 20.125 C15.14029955 21.25883454 11.57496593 21.21462229 7.6875 21.125 C3.8821875 21.063125 3.8821875 21.063125 0 21 C0 14.07 0 7.14 0 0 Z " fill="#F6F8FF" transform="translate(553,138)"/>
<path d="M0 0 C2 1 2 1 3.05322266 3.56030273 C3.4197998 4.67348877 3.78637695 5.7866748 4.1640625 6.93359375 C4.56367188 8.13951172 4.96328125 9.34542969 5.375 10.58789062 C5.57996094 11.21928955 5.78492188 11.85068848 5.99609375 12.5012207 C6.62214147 14.42869913 7.2592708 16.35222766 7.8984375 18.27539062 C11 27.70595323 11 27.70595323 11 30 C4.07 30 -2.86 30 -10 30 C-8.20855707 23.03327751 -6.13914431 16.19991319 -3.875 9.375 C-3.60929199 8.56885254 -3.34358398 7.76270508 -3.06982422 6.93212891 C-1.12376909 1.12376909 -1.12376909 1.12376909 0 0 Z " fill="#F2F4FF" transform="translate(492,142)"/>
</svg>
